<?xml version="1.0" encoding="UTF-8"?>
<svg version="1.1" xmlns="http://www.w3.org/2000/svg" width="120" height="124">
<path d="M0 0 C5.15434993 -0.26043031 9.78591048 1.03396518 14.70703125 2.37890625 C17.46896572 3.08901602 20.16352739 3.54837567 22.98046875 3.96875 C27.45151822 4.83594878 30.13956942 6.56545238 33.6015625 9.4609375 C36.0229818 11.389187 38.56711776 12.89345299 41.23046875 14.46875 C49.39794778 19.60453321 55.15316283 26.72984592 59.73046875 35.15625 C60.23453247 35.9452771 60.23453247 35.9452771 60.7487793 36.75024414 C64.33675094 42.87529381 64.23270337 48.50759759 64.04296875 55.46875 C64.03330078 56.55220703 64.02363281 57.63566406 64.01367188 58.75195312 C63.90084213 66.64512987 63.90084213 66.64512987 62.73046875 70.15625 C62.73046875 70.86136719 62.73046875 71.56648438 62.73046875 72.29296875 C62.73046875 78.9611488 60.77554359 83.80845139 57.60546875 89.53125 C57.239375 90.20889404 56.87328125 90.88653809 56.49609375 91.5847168 C54.04226946 95.79388095 51.50692608 98.43399907 47.38330078 101.03759766 C45.60230052 102.24299547 44.23458235 103.62561291 42.73046875 105.15625 C40.31521012 106.72638261 37.83524681 108.15179486 35.34375 109.59765625 C32.78083244 111.08177003 32.78083244 111.08177003 30.6484375 112.62109375 C26.9840149 115.19589171 24.4916211 116.36603264 19.98046875 116.53125 C15.33062415 116.73775152 12.68219869 118.19804599 8.79296875 120.71875 C3.71861191 123.89431525 0.00452117 125.13675082 -5.98828125 124.71484375 C-8.26953125 124.15625 -8.26953125 124.15625 -10.76953125 121.96875 C-12.26953125 119.15625 -12.26953125 119.15625 -13.35546875 116.60546875 C-16.08186314 113.11679674 -19.24539162 112.87361628 -23.39453125 112.15625 C-30.13503663 110.78072321 -35.53527442 109.08087943 -41.26953125 105.15625 C-42.03652344 104.65738281 -42.80351563 104.15851563 -43.59375 103.64453125 C-45.83668714 102.17271961 -48.05361372 100.66833334 -50.26953125 99.15625 C-51.29143555 98.67542969 -52.31333984 98.19460937 -53.36621094 97.69921875 C-56.56369668 94.89859552 -56.70825193 94.56982102 -56.99829102 90.59399414 C-57.01764133 88.7098564 -57.00294644 86.825175 -56.9609375 84.94140625 C-56.95956284 83.93468369 -56.95818817 82.92796112 -56.95677185 81.89073181 C-56.9477079 79.75639264 -56.92405841 77.62207314 -56.88696289 75.48803711 C-56.83274904 72.26146992 -56.82543033 69.03751869 -56.82617188 65.81054688 C-56.73813597 48.60215574 -55.82216353 35.02978876 -43.51953125 22.03125 C-39.86692365 18.5180549 -35.92228736 15.64578138 -31.7265625 12.81640625 C-27.28343702 9.81429444 -22.90599563 6.6678993 -18.96484375 3.02734375 C-15.63108054 0.71303566 -13.48477038 0.56611616 -9.45703125 0.40625 C-8.21566406 0.3546875 -6.97429688 0.303125 -5.6953125 0.25 C-3.79575804 0.19801675 -1.89577804 0.13051828 0 0 Z " fill="#2C2B2C" transform="translate(56.26953125,-0.15625)"/>
<path d="M0 0 C5.15434993 -0.26043031 9.78591048 1.03396518 14.70703125 2.37890625 C17.46896572 3.08901602 20.16352739 3.54837567 22.98046875 3.96875 C27.45151822 4.83594878 30.13956942 6.56545238 33.6015625 9.4609375 C36.0229818 11.389187 38.56711776 12.89345299 41.23046875 14.46875 C49.39794778 19.60453321 55.15316283 26.72984592 59.73046875 35.15625 C60.23453247 35.9452771 60.23453247 35.9452771 60.7487793 36.75024414 C64.33675094 42.87529381 64.23270337 48.50759759 64.04296875 55.46875 C64.03330078 56.55220703 64.02363281 57.63566406 64.01367188 58.75195312 C63.90084213 66.64512987 63.90084213 66.64512987 62.73046875 70.15625 C62.73046875 70.86136719 62.73046875 71.56648438 62.73046875 72.29296875 C62.73046875 78.9611488 60.77554359 83.80845139 57.60546875 89.53125 C57.239375 90.20889404 56.87328125 90.88653809 56.49609375 91.5847168 C54.04226946 95.79388095 51.50692608 98.43399907 47.38330078 101.03759766 C45.60230052 102.24299547 44.23458235 103.62561291 42.73046875 105.15625 C40.31521012 106.72638261 37.83524681 108.15179486 35.34375 109.59765625 C32.78083244 111.08177003 32.78083244 111.08177003 30.6484375 112.62109375 C26.9840149 115.19589171 24.4916211 116.36603264 19.98046875 116.53125 C15.33062415 116.73775152 12.68219869 118.19804599 8.79296875 120.71875 C3.71861191 123.89431525 0.00452117 125.13675082 -5.98828125 124.71484375 C-8.26953125 124.15625 -8.26953125 124.15625 -10.76953125 121.96875 C-12.26953125 119.15625 -12.26953125 119.15625 -13.35546875 116.60546875 C-16.08186314 113.11679674 -19.24539162 112.87361628 -23.39453125 112.15625 C-30.13503663 110.78072321 -35.53527442 109.08087943 -41.26953125 105.15625 C-42.03652344 104.65738281 -42.80351563 104.15851563 -43.59375 103.64453125 C-45.83668714 102.17271961 -48.05361372 100.66833334 -50.26953125 99.15625 C-51.29143555 98.67542969 -52.31333984 98.19460937 -53.36621094 97.69921875 C-56.56369668 94.89859552 -56.70825193 94.56982102 -56.99829102 90.59399414 C-57.01764133 88.7098564 -57.00294644 86.825175 -56.9609375 84.94140625 C-56.95956284 83.93468369 -56.95818817 82.92796112 -56.95677185 81.89073181 C-56.9477079 79.75639264 -56.92405841 77.62207314 -56.88696289 75.48803711 C-56.83274904 72.26146992 -56.82543033 69.03751869 -56.82617188 65.81054688 C-56.73813597 48.60215574 -55.82216353 35.02978876 -43.51953125 22.03125 C-39.86692365 18.5180549 -35.92228736 15.64578138 -31.7265625 12.81640625 C-27.28343702 9.81429444 -22.90599563 6.6678993 -18.96484375 3.02734375 C-15.63108054 0.71303566 -13.48477038 0.56611616 -9.45703125 0.40625 C-8.21566406 0.3546875 -6.97429688 0.303125 -5.6953125 0.25 C-3.79575804 0.19801675 -1.89577804 0.13051828 0 0 Z M-39.26953125 26.15625 C-49.20966133 38.34474284 -53.5012804 51.43678472 -52.26953125 67.15625 C-50.26852976 81.21370584 -44.20870788 91.21707337 -34.26953125 101.15625 C-33.3878125 102.03796875 -33.3878125 102.03796875 -32.48828125 102.9375 C-22.7956125 111.89864658 -9.86800499 115.74385035 3.10546875 115.59375 C4.02231445 115.58690186 4.93916016 115.58005371 5.88378906 115.57299805 C13.07152243 115.40328414 19.19478247 114.2704328 25.73046875 111.15625 C26.51164062 110.805625 27.2928125 110.455 28.09765625 110.09375 C40.34392296 103.99180396 50.72801077 92.85752629 55.73046875 80.15625 C60.28491617 65.65488943 59.96976156 51.82542474 53.48046875 37.96875 C45.43199501 23.04205538 33.10912696 13.86478462 16.91015625 9.01171875 C-3.82817985 4.14258901 -24.76853896 10.70711591 -39.26953125 26.15625 Z " fill="#2A282B" transform="translate(56.26953125,-0.15625)"/>
<path d="M0 0 C11.38028441 7.4476479 20.53403498 19.20597547 23.5546875 32.671875 C23.7815625 33.6 24.0084375 34.528125 24.2421875 35.484375 C25.7231124 50.58980899 23.20666845 63.98545485 14.5546875 76.671875 C5.5738011 87.41318018 -4.2774295 93.39943376 -17.4453125 97.671875 C-18.9303125 98.166875 -18.9303125 98.166875 -20.4453125 98.671875 C-36.29525912 100.17758181 -51.18786917 98.59931896 -64.171875 88.61328125 C-75.66709319 78.79691795 -85.16878126 66.30938275 -86.4453125 50.671875 C-87.40118722 34.94773581 -83.53561873 21.71901021 -73.4453125 9.546875 C-65.58927358 1.24040552 -55.68945484 -4.96980301 -44.4453125 -7.328125 C-43.51730835 -7.58178833 -43.51730835 -7.58178833 -42.57055664 -7.84057617 C-27.97886527 -11.18803254 -12.64307577 -7.40261248 0 0 Z M-69.05859375 12.04931641 C-74.88769348 18.8697736 -79.76642735 27.63975085 -80.4453125 36.671875 C-80.52523437 37.72890625 -80.60515625 38.7859375 -80.6875 39.875 C-81.26445483 55.28308791 -75.79174866 68.55081492 -65.41796875 79.859375 C-54.64208703 89.76038316 -40.84004383 93.13775758 -26.59765625 93.01171875 C-15.39878921 92.37291947 -4.92033196 87.95190099 3.5546875 80.671875 C4.19792969 80.12660156 4.84117188 79.58132812 5.50390625 79.01953125 C14.24155528 70.96421489 20.15213165 59.37361616 20.90234375 47.48046875 C21.38695874 33.13586501 17.99737607 21.08031035 8.296875 10.12109375 C2.41902934 4.49839573 -4.00977233 0.87956913 -11.4453125 -2.328125 C-12.67314453 -2.87146484 -12.67314453 -2.87146484 -13.92578125 -3.42578125 C-33.65097109 -10.49015157 -55.28301065 -2.56184998 -69.05859375 12.04931641 Z " fill="#7F8DEA" transform="translate(90.4453125,16.328125)"/>
<path d="M0 0 C2.23786002 1.16879876 4.21005558 2.21005558 6 4 C6.1875 6.4375 6.1875 6.4375 6 9 C5.34 9.66 4.68 10.32 4 11 C3.01 11 2.02 11 1 11 C0.505 9.02 0.505 9.02 0 7 C-1.43410368 6.75045995 -2.87260072 6.52607358 -4.3125 6.3125 C-5.11300781 6.18488281 -5.91351563 6.05726562 -6.73828125 5.92578125 C-9.06294119 5.78600385 -9.06294119 5.78600385 -10.75390625 7.3125 C-12.19398036 9.0294089 -12.19398036 9.0294089 -12.625 11.6875 C-11.67430331 16.72619243 -8.48244179 19.3921903 -5 23 C-3.864325 24.26130276 -2.73842873 25.53151646 -1.625 26.8125 C-1.14289063 27.35519531 -0.66078125 27.89789063 -0.1640625 28.45703125 C2.53333729 32.03244373 2.49183061 35.71404752 2 40 C-1.75523435 47.42732699 -7.39048709 50.4634957 -15 53 C-20.59414356 53.49241379 -25.42891058 53.74420025 -30.5625 51.3125 C-33.94823272 48.1003946 -35.66102732 45.73252705 -36.5625 41.125 C-35.75677563 36.64875352 -33.51712024 33.84170136 -30 31 C-27.125 30.5625 -27.125 30.5625 -25 31 C-25.165 31.66 -25.33 32.32 -25.5 33 C-26.74172119 39.64658113 -26.74172119 39.64658113 -24.765625 45.7578125 C-22.43418257 47.39807509 -21.28263938 47.17667137 -18.5 46.75 C-17.7265625 46.64171875 -16.953125 46.5334375 -16.15625 46.421875 C-13.83015786 46.01460006 -13.83015786 46.01460006 -11 45 C-9.20162252 41.59254793 -8.54719017 38.82058296 -9 35 C-10.77703653 32.43616125 -10.77703653 32.43616125 -13.1875 30.0625 C-14.00476563 29.18851563 -14.82203125 28.31453125 -15.6640625 27.4140625 C-16.99578643 26.03779931 -18.33808521 24.67117739 -19.7109375 23.3359375 C-22.4394123 20.51283351 -23.35869918 18.32763424 -23.5625 14.5 C-23.27680311 10.02658813 -22.05649744 7.36998436 -19 4 C-13.20457801 -0.58804241 -7.26133741 -1.09810416 0 0 Z " fill="#F2F2F2" transform="translate(90,36)"/>
<path d="M0 0 C3.0625 0.1875 3.0625 0.1875 5.0625 2.1875 C5.62800744 7.71312088 4.39345628 11.6763809 1.875 16.5 C1.52912842 17.17788574 1.18325684 17.85577148 0.8269043 18.55419922 C-5.04305397 29.60486417 -12.85041986 39.67505323 -20.9375 49.1875 C-25.8125 48.3125 -25.8125 48.3125 -26.9375 47.1875 C-27.38306202 44.38435438 -27.77378817 41.59232592 -28.12890625 38.77734375 C-28.29325417 37.51429161 -28.29325417 37.51429161 -28.46092224 36.22572327 C-28.81127545 33.52598133 -29.15569635 30.82551946 -29.5 28.125 C-29.73593892 26.2987778 -29.97226198 24.47260518 -30.20898438 22.64648438 C-30.78962164 18.1607203 -31.3649383 13.67430169 -31.9375 9.1875 C-34.4125 8.1975 -34.4125 8.1975 -36.9375 7.1875 C-36.625 5.3125 -36.625 5.3125 -35.9375 3.1875 C-32.2169164 0.70711093 -30.33953429 0.72412797 -25.9375 1.1875 C-22.64166214 3.45376929 -21.64957544 5.58929703 -20.890625 9.3828125 C-20.63721873 11.02321458 -20.40362829 12.6667715 -20.1875 14.3125 C-20.06463623 15.16110596 -19.94177246 16.00971191 -19.81518555 16.8840332 C-19.01652589 22.69616056 -18.64883133 28.31790366 -18.9375 34.1875 C-15.52105724 31.0544841 -13.21647391 27.70330309 -10.8125 23.75 C-10.12929688 22.63753906 -9.44609375 21.52507813 -8.7421875 20.37890625 C-6.04516519 15.60949666 -4.72272515 11.91232154 -4.375 6.4375 C-3.96989167 0.25339734 -3.96989167 0.25339734 0 0 Z " fill="#F1F0F1" transform="translate(60.9375,35.8125)"/>
<path d="M0 0 C15.80325808 3.90796404 27.4108439 12.0453477 36.02978516 25.77734375 C38.78101125 30.36313238 40.83059369 34.78685225 42 40 C42.3403125 41.3921875 42.3403125 41.3921875 42.6875 42.8125 C43.5095346 51.19725292 43.17135258 58.85742784 41 67 C40.34 65.68 39.68 64.36 39 63 C38.34 63.99 37.68 64.98 37 66 C37.15984375 65.01644531 37.3196875 64.03289062 37.484375 63.01953125 C39.76543386 46.92674189 37.53242139 33.45316391 28 20 C20.0691761 10.92750279 7.90539621 4.66121808 -4 3 C-2.68 2.67 -1.36 2.34 0 2 C0 1.34 0 0.68 0 0 Z " fill="#8362D3" transform="translate(72,9)"/>
<path d="M0 0 C0 0.66 0 1.32 0 2 C-1.16015625 2.04898437 -2.3203125 2.09796875 -3.515625 2.1484375 C-12.47280657 2.56413521 -21.18784205 3.22028967 -30 5 C-30 4.34 -30 3.68 -30 3 C-31.32 2.67 -32.64 2.34 -34 2 C-23.96463324 -1.36515292 -10.32227936 -3.44075979 0 0 Z " fill="#7692E9" transform="translate(72,9)"/>
<path d="M0 0 C0.33 0.66 0.66 1.32 1 2 C1.66 2 2.32 2 3 2 C5.02028129 11.0912658 4.37903243 20.0786284 2 29 C1.34 27.68 0.68 26.36 0 25 C-0.66 25.99 -1.32 26.98 -2 28 C-1.84660156 27.07058594 -1.69320312 26.14117187 -1.53515625 25.18359375 C-0.81806202 20.16393411 -0.64854502 15.12412066 -0.4375 10.0625 C-0.39431641 9.09248047 -0.35113281 8.12246094 -0.30664062 7.12304688 C-0.20137907 4.74881399 -0.09924293 2.37449079 0 0 Z " fill="#7E5CCA" transform="translate(111,47)"/>
<path d="M0 0 C-0.99 0.33 -1.98 0.66 -3 1 C-2.01 1.66 -1.02 2.32 0 3 C-3.96 3.66 -7.92 4.32 -12 5 C-12 4.34 -12 3.68 -12 3 C-13.32 2.67 -14.64 2.34 -16 2 C-14.08654673 1.46748234 -12.1690705 0.94940517 -10.25 0.4375 C-9.18265625 0.14746094 -8.1153125 -0.14257812 -7.015625 -0.44140625 C-4.15664073 -0.97098494 -2.68402617 -0.98370862 0 0 Z " fill="#6395D9" transform="translate(54,9)"/>
<path d="M0 0 C1.62566606 0.47690204 3.25051311 0.95659666 4.875 1.4375 C5.77992187 1.70433594 6.68484375 1.97117187 7.6171875 2.24609375 C10 3 10 3 12 4 C12 4.66 12 5.32 12 6 C6.49191603 5.40984815 1.35121931 4.43336231 -4 3 C-2.68 2.67 -1.36 2.34 0 2 C0 1.34 0 0.68 0 0 Z " fill="#787EDA" transform="translate(72,9)"/>
<path d="M0 0 C0 0.99 0 1.98 0 3 C-2.6875 4.625 -2.6875 4.625 -6 6 C-8.875 5.1875 -8.875 5.1875 -11 4 C-7.35237315 0.18657193 -5.28949249 -0.11498897 0 0 Z " fill="#6CACE9" transform="translate(42,12)"/>
<path d="M0 0 C0.33 0 0.66 0 1 0 C1.05416188 1.60379341 1.09286638 3.20811406 1.125 4.8125 C1.14820312 5.70582031 1.17140625 6.59914063 1.1953125 7.51953125 C1 10 1 10 -1 13 C-1.33 11.68 -1.66 10.36 -2 9 C-2.66 9.99 -3.32 10.98 -4 12 C-3.53439347 7.25081338 -2.83067342 3.89217595 0 0 Z " fill="#885EDC" transform="translate(113,63)"/>
<path d="M0 0 C0.66 0.33 1.32 0.66 2 1 C-2.62 5.62 -7.24 10.24 -12 15 C-12 11.11566834 -10.82920314 10.32394504 -8.25 7.5 C-7.55390625 6.7265625 -6.8578125 5.953125 -6.140625 5.15625 C-4.19891408 3.20036601 -2.25069252 1.58156772 0 0 Z " fill="#63B6DA" transform="translate(26,18)"/>
<path d="M0 0 C1.21236328 0.01353516 1.21236328 0.01353516 2.44921875 0.02734375 C3.37154297 0.04474609 3.37154297 0.04474609 4.3125 0.0625 C4.6425 0.7225 4.9725 1.3825 5.3125 2.0625 C0.6925 2.3925 -3.9275 2.7225 -8.6875 3.0625 C-6.88341097 -0.54567807 -3.60175697 -0.05219938 0 0 Z " fill="#70A1F1" transform="translate(58.6875,7.9375)"/>
<path d="M0 0 C3.77545388 1.09068668 6.47043472 1.9083091 9 5 C7.4375 5.75 7.4375 5.75 5 6 C2.49713591 4.86915563 0.32992278 3.47860484 -2 2 C-1.34 1.34 -0.68 0.68 0 0 Z " fill="#7B6DD6" transform="translate(84,14)"/>
<path d="M0 0 C2.88575819 0.39803561 3.82189513 0.79009069 5.75 3.0625 C6.1625 3.701875 6.575 4.34125 7 5 C3.47967572 5 2.5614657 4.29648649 0 2 C0 1.34 0 0.68 0 0 Z " fill="#8967DF" transform="translate(91,19)"/>
</svg>
