<?xml version="1.0" encoding="UTF-8"?>
<svg version="1.1" xmlns="http://www.w3.org/2000/svg" width="985" height="360">
<path d="M0 0 C325.05 0 650.1 0 985 0 C985 118.8 985 237.6 985 360 C659.95 360 334.9 360 0 360 C0 241.2 0 122.4 0 0 Z " fill="#FCFDFD" transform="translate(0,0)"/>
<path d="M0 0 C0.82310669 0.28786377 1.64621338 0.57572754 2.4942627 0.87231445 C4.24416043 1.48486502 5.99246034 2.10199706 7.73922729 2.72341919 C12.31847146 4.3505778 16.91106456 5.93904912 21.50390625 7.52734375 C22.41083725 7.84151749 23.31776825 8.15569122 24.25218201 8.47938538 C35.71842239 12.43132528 47.33007247 15.83834546 59.00390625 19.12109375 C60.64986765 19.59200052 62.29570903 20.06332707 63.94140625 20.53515625 C68.2849 21.77146322 72.64104057 22.95526448 77.00390625 24.12109375 C77.78749512 24.33362793 78.57108398 24.54616211 79.37841797 24.76513672 C89.70974369 27.55003161 99.93476358 29.78278991 110.55810547 31.13330078 C111.34459473 31.23626465 112.13108398 31.33922852 112.94140625 31.4453125 C113.63105469 31.52869873 114.32070313 31.61208496 115.03125 31.69799805 C117.00390625 32.12109375 117.00390625 32.12109375 121.00390625 34.12109375 C121.00390625 47.98109375 121.00390625 61.84109375 121.00390625 76.12109375 C116.77578125 77.27609375 112.54765625 78.43109375 108.19140625 79.62109375 C106.86133545 79.98654297 105.53126465 80.35199219 104.16088867 80.72851562 C103.11263916 81.01275391 102.06438965 81.29699219 100.984375 81.58984375 C99.91082764 81.88310547 98.83728027 82.17636719 97.73120117 82.47851562 C95.00390625 83.12109375 95.00390625 83.12109375 92.00390625 83.12109375 C92.00390625 75.20109375 92.00390625 67.28109375 92.00390625 59.12109375 C89.36390625 58.79109375 86.72390625 58.46109375 84.00390625 58.12109375 C81.88567045 57.65464579 79.77651046 57.14466812 77.6796875 56.58984375 C76.49979248 56.27813232 75.31989746 55.9664209 74.10424805 55.64526367 C72.85426025 55.3072876 71.60427246 54.96931152 70.31640625 54.62109375 C69.66983063 54.44768463 69.023255 54.27427551 68.35708618 54.09561157 C51.417394 49.54506342 34.65347788 44.37903693 18.02661133 38.79370117 C14.09710822 37.48702875 10.14129214 36.26449908 6.18359375 35.04638672 C2.89225054 34.03160688 -0.3773743 32.99059107 -3.63671875 31.875 C-4.7453125 31.50246094 -5.85390625 31.12992188 -6.99609375 30.74609375 C-7.96546875 30.40835938 -8.93484375 30.070625 -9.93359375 29.72265625 C-16.69853888 28.39382774 -23.18731443 30.56340984 -29.62109375 32.55859375 C-30.46591309 32.81519775 -31.31073242 33.07180176 -32.18115234 33.33618164 C-38.76024081 35.36172857 -45.27886138 37.55402998 -51.7980957 39.76342773 C-65.82765244 44.51790237 -79.90945114 48.73103111 -94.265625 52.41015625 C-96.7059497 53.04554837 -99.13337331 53.71192063 -101.55859375 54.40234375 C-108.74036315 56.43857429 -115.52544789 57.71174329 -122.99609375 58.12109375 C-122.66609375 65.38109375 -122.33609375 72.64109375 -121.99609375 80.12109375 C-117.70609375 82.10109375 -113.41609375 84.08109375 -108.99609375 86.12109375 C-112.2893729 89.4143729 -114.86665825 91.02015288 -118.99609375 93.12109375 C-120.31609375 93.12109375 -121.63609375 93.12109375 -122.99609375 93.12109375 C-122.934106 100.48582378 -122.85647146 107.8502282 -122.76037884 115.21459675 C-122.71618872 118.6364475 -122.67683035 122.05819306 -122.6496582 125.48022461 C-122.39537579 155.01485684 -119.30079575 182.79031484 -104.99609375 209.12109375 C-97.53147415 209.12109375 -86.58184828 195.74941876 -80.98095703 190.8515625 C-79.03253631 189.15286557 -77.07652287 187.46343342 -75.1171875 185.77734375 C-62.31176662 174.96553542 -62.31176662 174.96553542 -50.29296875 163.31640625 C-48.99609375 162.12109375 -48.99609375 162.12109375 -46.99609375 162.12109375 C-46.99609375 161.46109375 -46.99609375 160.80109375 -46.99609375 160.12109375 C-44.06966138 161.44965569 -41.92601745 162.91673552 -39.60546875 165.1328125 C-38.98220703 165.72255859 -38.35894531 166.31230469 -37.71679688 166.91992188 C-37.06646484 167.54318359 -36.41613281 168.16644531 -35.74609375 168.80859375 C-34.39796003 170.08420539 -33.04901014 171.35895506 -31.69921875 172.6328125 C-31.05662109 173.24044434 -30.41402344 173.84807617 -29.75195312 174.47412109 C-27.12403139 176.93907661 -24.43103996 179.32000101 -21.6953125 181.6640625 C-20.49634313 182.69214428 -19.31273572 183.73827395 -18.140625 184.796875 C-17.53605469 185.33699219 -16.93148437 185.87710938 -16.30859375 186.43359375 C-15.78910156 186.90410156 -15.26960937 187.37460938 -14.734375 187.859375 C-12.61657884 189.39656188 -10.44719013 190.23168399 -7.99609375 191.12109375 C-7.56377441 190.76917969 -7.13145508 190.41726562 -6.68603516 190.0546875 C7.55086392 178.46853643 7.55086392 178.46853643 13.00390625 174.12109375 C20.04468073 168.50495759 27.01818771 162.80542498 34.00390625 157.12109375 C36.79519791 154.84979892 39.58679608 152.57888233 42.37890625 150.30859375 C43.38703369 149.48875 43.38703369 149.48875 44.41552734 148.65234375 C48.01441644 145.72830208 51.62505096 142.82044668 55.25390625 139.93359375 C58.85527159 137.06215338 62.40558693 134.13539169 65.94140625 131.18359375 C66.93914062 130.35085937 67.936875 129.518125 68.96484375 128.66015625 C70.49739471 127.37974735 72.02989933 126.09927784 73.55957031 124.81542969 C75.0583818 123.55900338 76.56231561 122.30869547 78.06640625 121.05859375 C78.94425781 120.32511719 79.82210937 119.59164062 80.7265625 118.8359375 C83.00390625 117.12109375 83.00390625 117.12109375 86.00390625 116.12109375 C82.62858346 112.64348845 79.12976059 109.49998244 75.359375 106.453125 C74.91207031 106.01355469 74.46476563 105.57398438 74.00390625 105.12109375 C74.00390625 104.46109375 74.00390625 103.80109375 74.00390625 103.12109375 C75.215625 102.82976562 76.42734375 102.5384375 77.67578125 102.23828125 C87.4546011 99.85664002 97.11550977 97.25178323 106.73632812 94.29589844 C114.42517145 91.95009779 122.18429707 89.97770487 130.00390625 88.12109375 C129.38826514 93.6529414 127.44903324 98.2906259 125.31640625 103.37109375 C122.23197353 110.8611661 119.45890557 118.37481183 117.08325195 126.12011719 C115.58270544 130.87416949 113.60811704 134.86421073 111.00390625 139.12109375 C107.79346743 137.73920922 105.9545426 136.19687472 103.75390625 133.49609375 C103.233125 132.86445313 102.71234375 132.2328125 102.17578125 131.58203125 C101.7890625 131.09992188 101.40234375 130.6178125 101.00390625 130.12109375 C98.19756109 131.41685922 95.99150649 132.82811208 93.68359375 134.87890625 C93.07112793 135.41789551 92.45866211 135.95688477 91.82763672 136.51220703 C90.86301514 137.37048096 90.86301514 137.37048096 89.87890625 138.24609375 C84.85364364 142.66238008 79.77990846 146.96089301 74.5234375 151.1015625 C71.49014161 153.532902 68.52705328 156.03969269 65.56640625 158.55859375 C58.18890751 164.83146335 50.71353228 170.97480449 43.12890625 176.99609375 C39.27236076 180.06794781 35.50273891 183.23200319 31.75390625 186.43359375 C26.68911973 190.75580442 21.50965354 194.89939188 16.25073242 198.98217773 C12.09950477 202.21991533 8.06580673 205.57316777 4.06640625 208.99609375 C-5.12298614 216.81371049 -5.12298614 216.81371049 -8.99609375 219.12109375 C-18.11264443 218.32835021 -28.07855802 205.40007633 -34.42480469 199.35107422 C-37.83633002 196.10445901 -41.25238157 192.99030946 -44.99609375 190.12109375 C-48.42283071 191.64848459 -51.05450657 193.66440546 -53.93359375 196.05859375 C-54.90425781 196.86425781 -55.87492187 197.66992188 -56.875 198.5 C-57.91606404 199.37286436 -58.95641663 200.24657788 -59.99609375 201.12109375 C-60.51413574 201.55663574 -61.03217773 201.99217773 -61.56591797 202.44091797 C-64.82049036 205.18134625 -68.06576998 207.93261183 -71.30810547 210.6875 C-74.18048432 213.12698635 -77.05708211 215.56148341 -79.93359375 217.99609375 C-80.4529248 218.43614746 -80.97225586 218.87620117 -81.50732422 219.32958984 C-83.00208058 220.59519837 -84.49907179 221.85816589 -85.99609375 223.12109375 C-86.75623779 223.77706543 -86.75623779 223.77706543 -87.53173828 224.44628906 C-89.73296947 226.32663902 -91.88161103 228.05323125 -94.375 229.53125 C-98.19027847 231.8454353 -101.50656095 234.71068813 -104.93359375 237.55859375 C-109.48669006 241.33796128 -114.00168109 244.93998897 -118.99609375 248.12109375 C-141.50502543 213.02007529 -152.54622995 178.50280089 -152.73451614 136.55692673 C-152.75020432 133.76440538 -152.78035969 130.97211324 -152.81058216 128.17971706 C-152.91509396 118.4936555 -152.96396819 108.80763538 -152.99609375 99.12109375 C-152.99871468 98.34553383 -153.0013356 97.56997391 -153.00403595 96.77091217 C-153.07346847 75.55417995 -153.06512407 54.33782008 -152.99609375 33.12109375 C-152.42409241 33.04625259 -151.85209106 32.97141144 -151.26275635 32.89430237 C-140.59621468 31.48164005 -130.11191889 30.0256784 -119.74609375 27.05859375 C-117.88713207 26.54537554 -116.02776185 26.03363462 -114.16796875 25.5234375 C-113.295354 25.28165771 -112.42273926 25.03987793 -111.52368164 24.79077148 C-109.14225199 24.15981799 -106.75977103 23.60782991 -104.3515625 23.08984375 C-100.01976074 22.15327669 -95.79805849 20.97117897 -91.55859375 19.68359375 C-90.7402002 19.43697998 -89.92180664 19.19036621 -89.07861328 18.9362793 C-78.6589215 15.76186469 -68.30642054 12.3706918 -57.95141602 8.99243164 C-56.53666339 8.53128297 -55.12186942 8.07026115 -53.70703125 7.609375 C-53.02846069 7.38822021 -52.34989014 7.16706543 -51.65075684 6.93920898 C-47.87988071 5.7154197 -44.09955344 4.53880637 -40.296875 3.41796875 C-37.05132456 2.45964498 -33.92673981 1.38420834 -30.80859375 0.05859375 C-19.51920491 -4.50632242 -11.34683141 -4.11868015 0 0 Z " fill="#1690C4" transform="translate(174.99609375,23.87890625)"/>
<path d="M0 0 C0.66 0 1.32 0 2 0 C3.48772704 42.8961298 -13.9883302 86.13077011 -42.8125 117.5 C-44.16794922 118.93472656 -44.16794922 118.93472656 -45.55078125 120.3984375 C-47.61329831 122.58924509 -49.56759077 124.82079707 -51.5 127.125 C-60.16605175 137.03196527 -70.72378137 144.77959662 -81.2019043 152.6328125 C-82.66210015 153.74307683 -84.09190782 154.89322475 -85.51171875 156.0546875 C-88.85427936 158.66786675 -92.37168029 160.95467192 -95.9375 163.25 C-96.68749268 163.73380127 -97.43748535 164.21760254 -98.21020508 164.71606445 C-103.89891846 168.35652775 -109.66801337 171.78519913 -115.5703125 175.0703125 C-118.01405834 176.44526745 -120.41271235 177.84569199 -122.8046875 179.3046875 C-123.4335083 179.68214111 -124.0623291 180.05959473 -124.71020508 180.44848633 C-126.45900167 181.50025367 -128.20045242 182.56420732 -129.94140625 183.62890625 C-133.4525178 185.20285281 -134.39809098 185.00640572 -138 184 C-140.1496582 183.03540039 -140.1496582 183.03540039 -142.30078125 181.84765625 C-143.10475342 181.40623291 -143.90872559 180.96480957 -144.73706055 180.51000977 C-145.58695557 180.03233154 -146.43685059 179.55465332 -147.3125 179.0625 C-148.20042236 178.56741943 -149.08834473 178.07233887 -150.00317383 177.56225586 C-176.53651688 162.6460215 -211.09398261 142.24364328 -228 116 C-227.7367534 113.45271144 -227.25358993 112.26712343 -225.48120117 110.40014648 C-224.84158447 109.89555908 -224.20196777 109.39097168 -223.54296875 108.87109375 C-222.84236328 108.31099609 -222.14175781 107.75089844 -221.41992188 107.17382812 C-220.68322266 106.60083984 -219.94652344 106.02785156 -219.1875 105.4375 C-218.09985352 104.5722168 -218.09985352 104.5722168 -216.99023438 103.68945312 C-215.00311344 102.11320989 -213.00857437 100.54879573 -211 99 C-210.32235596 98.42258057 -209.64471191 97.84516113 -208.9465332 97.25024414 C-207.98299927 96.63137329 -207.98299927 96.63137329 -207 96 C-203.54718834 97.15093722 -202.61917837 98.3205993 -200.3125 101.0625 C-199.37857422 102.16271484 -199.37857422 102.16271484 -198.42578125 103.28515625 C-197.95527344 103.85105469 -197.48476562 104.41695313 -197 105 C-197.09023437 103.91203125 -197.18046875 102.8240625 -197.2734375 101.703125 C-197.7128958 90.50971343 -197.7128958 90.50971343 -194.72363281 86.12988281 C-191.46160115 82.67561355 -187.68368658 79.91294535 -183.77978516 77.2265625 C-181.33624703 75.54256585 -179.01736853 73.71179458 -176.6875 71.875 C-175.99011719 71.35679687 -175.29273438 70.83859375 -174.57421875 70.3046875 C-172.86545511 69.06697902 -172.86545511 69.06697902 -172 67 C-171.34 67 -170.68 67 -170 67 C-170 87.46 -170 107.92 -170 129 C-168.35 129.66 -166.7 130.32 -165 131 C-164.01 131.66 -163.02 132.32 -162 133 C-162 110.56 -162 88.12 -162 65 C-156.98476754 68.76142434 -153.02109308 71.82987054 -148.79296875 76.203125 C-146.2811895 78.72037654 -143.59836963 81.01686991 -140.89453125 83.32421875 C-139.95673828 84.15373047 -139.95673828 84.15373047 -139 85 C-138.31029114 85.57159851 -137.62058228 86.14319702 -136.90997314 86.7321167 C-134.4519303 89.65077257 -134.51413565 91.1821418 -134.54589844 94.96191406 C-134.54620056 96.16285706 -134.54650269 97.36380005 -134.54681396 98.60113525 C-134.56745911 99.89291687 -134.58810425 101.18469849 -134.609375 102.515625 C-134.61683929 103.85511429 -134.62253134 105.19461452 -134.62652588 106.53411865 C-134.64176787 110.05251436 -134.68103582 113.57024515 -134.7253418 117.08837891 C-134.76632636 120.68122361 -134.7845436 124.2741762 -134.8046875 127.8671875 C-134.84753255 134.91172966 -134.91576554 141.95582132 -135 149 C-132.36 148.01 -129.72 147.02 -127 146 C-127.00745743 145.30144394 -127.01491486 144.60288788 -127.02259827 143.88316345 C-127.08509875 137.27740196 -127.10412274 130.6730817 -127.07515812 124.06705379 C-127.06177917 120.67110223 -127.06480195 117.27686413 -127.10620117 113.88110352 C-127.15313556 109.9708935 -127.12713071 106.06275312 -127.09765625 102.15234375 C-127.12223404 100.94166733 -127.14681183 99.73099091 -127.1721344 98.48362732 C-127.03175251 90.20445852 -127.03175251 90.20445852 -124.07577515 86.75367737 C-121.79456556 84.97012089 -119.48027476 83.48892038 -117 82 C-115.53429284 80.84647204 -114.08361175 79.67330718 -112.65625 78.47265625 C-111.96789062 77.90869141 -111.27953125 77.34472656 -110.5703125 76.76367188 C-109.15803678 75.60320758 -107.74661409 74.44170457 -106.3359375 73.27929688 C-105.65789062 72.72435547 -104.97984375 72.16941406 -104.28125 71.59765625 C-103.67345703 71.09758057 -103.06566406 70.59750488 -102.43945312 70.08227539 C-101 69 -101 69 -100 69 C-100 88.8 -100 108.6 -100 129 C-92.97215767 125.09394476 -92.97215767 125.09394476 -92.21446228 121.11898804 C-92.27447166 119.53327499 -92.27447166 119.53327499 -92.33569336 117.91552734 C-92.36138901 116.71012299 -92.38708466 115.50471863 -92.41355896 114.26278687 C-92.47173294 112.96692657 -92.52990692 111.67106628 -92.58984375 110.3359375 C-92.61605 108.97946896 -92.63708718 107.62289168 -92.6532135 106.26626587 C-92.72884098 100.52312557 -92.88093461 94.78390629 -93.09887695 89.04443359 C-94.02249414 63.47187768 -94.02249414 63.47187768 -89.04052734 57.78686523 C-86.21155267 55.31175408 -83.18459621 53.59306772 -79.80282593 51.98521423 C-76.64797015 50.26113829 -74.31741839 47.81240717 -71.75 45.3125 C-67.21617418 41 -67.21617418 41 -65 41 C-64.67 59.15 -64.34 77.3 -64 96 C-57.43680192 88.89187905 -57.43680192 88.89187905 -56.39575195 81.28759766 C-56.45464348 79.75022446 -56.45464348 79.75022446 -56.51472473 78.18179321 C-56.62538521 76.56426651 -56.62538521 76.56426651 -56.73828125 74.9140625 C-56.81705979 72.57816863 -56.89449225 70.24222905 -56.97070312 67.90625 C-57.13194119 64.26231888 -57.31272513 60.62105902 -57.52075195 56.97949219 C-58.66676063 35.4339465 -58.66676063 35.4339465 -54.51928711 30.06591797 C-51.68327212 27.18158979 -48.44163832 25.11551207 -45 23 C-42.92059089 21.35163441 -40.93923446 19.61929629 -38.9375 17.875 C-36.18493221 15.60342423 -34.39049891 14.1301663 -31 13 C-30.67 16.63 -30.34 20.26 -30 24 C-29.89042969 22.95199219 -29.78085937 21.90398437 -29.66796875 20.82421875 C-29.50849426 19.44523349 -29.34830034 18.06633129 -29.1875 16.6875 C-29.08211914 15.65206055 -29.08211914 15.65206055 -28.97460938 14.59570312 C-28.61882012 11.64976806 -28.32529685 9.44454314 -26.55078125 7.01953125 C-25 6 -25 6 -23 6 C-21.02 9.465 -21.02 9.465 -19 13 C-14.6490692 12.12710261 -11.78302398 9.77446551 -8.375 7.0625 C-7.78976562 6.60681641 -7.20453125 6.15113281 -6.6015625 5.68164062 C-4.29301078 3.87345161 -2.07521261 2.07521261 0 0 Z " fill="#348D44" transform="translate(294,168)"/>
<path d="M0 0 C10.415625 -0.12375 20.83125 -0.2475 31.5625 -0.375 C36.44784546 -0.45693604 36.44784546 -0.45693604 41.43188477 -0.54052734 C44.06004359 -0.55807739 46.68821893 -0.57336044 49.31640625 -0.5859375 C49.97632065 -0.60161774 50.63623505 -0.61729797 51.31614685 -0.63345337 C63.96117325 -0.91819922 75.16759034 1.67223869 85.125 9.875 C92.9042891 17.58103779 96.00111823 25.36461231 96.3125 36.25 C96.08721504 47.69977696 93.44290588 57.51442587 85.23046875 65.78125 C77.109375 73 77.109375 73 72 73 C75.98586188 80.52551807 80.26508395 87.77899701 84.875 94.9375 C85.4848877 95.89100342 86.09477539 96.84450684 86.72314453 97.8269043 C90.65252625 103.9546327 94.64107079 110.03638205 98.7421875 116.05078125 C100 118 100 118 100 119 C76.03886517 121.10207215 76.03886517 121.10207215 69.8828125 116.84375 C68.25714927 114.04038407 67.04918582 111.28314235 65.94824219 108.23974609 C63.96755849 103.56137528 60.98728488 99.38825969 58.25 95.125 C57.14680587 93.35941043 56.04767264 91.59127531 54.953125 89.8203125 C54.43137695 88.99958252 53.90962891 88.17885254 53.37207031 87.33325195 C52 85 52 85 51.15136719 82.84448242 C50.35683374 80.61140547 50.35683374 80.61140547 48 78 C43.91135549 76.98916584 39.94422345 77.02277987 35.75 77.0625 C31.8725 77.041875 27.995 77.02125 24 77 C24 90.86 24 104.72 24 119 C16.08 119 8.16 119 0 119 C0 79.73 0 40.46 0 0 Z " fill="#31823F" transform="translate(651,108)"/>
<path d="M0 0 C7.26 0 14.52 0 22 0 C22 39.6 22 79.2 22 120 C14.74 120 7.48 120 0 120 C-0.495 116.04 -0.495 116.04 -1 112 C-1.49886719 112.45890625 -1.99773437 112.9178125 -2.51171875 113.390625 C-9.54432889 119.40053959 -17.71533064 122.97014153 -27.0625 123.4375 C-39.01359288 122.10960079 -48.12954356 118.57066116 -56.375 109.5625 C-63.64718789 100.3647187 -66.56372536 89.69265254 -66.4375 78.125 C-66.42992676 77.15409424 -66.42235352 76.18318848 -66.41455078 75.18286133 C-66.25282564 68.1584421 -65.4807159 62.21556411 -62 56 C-61.56429688 55.20722656 -61.12859375 54.41445312 -60.6796875 53.59765625 C-54.65440376 43.70367939 -45.9098874 37.63662913 -35 34 C-20.75414937 33.08022286 -10.9385733 35.88452225 0 45 C0 30.15 0 15.3 0 0 Z " fill="#153359" transform="translate(518,107)"/>
<path d="M0 0 C-0.61564111 5.53184765 -2.55487301 10.16953215 -4.6875 15.25 C-7.77193272 22.74007235 -10.54500068 30.25371808 -12.9206543 37.99902344 C-14.42120081 42.75307574 -16.39578921 46.74311698 -19 51 C-22.21043882 49.61811547 -24.04936365 48.07578097 -26.25 45.375 C-26.77078125 44.74335938 -27.2915625 44.11171875 -27.828125 43.4609375 C-28.21484375 42.97882813 -28.6015625 42.49671875 -29 42 C-31.80634516 43.29576547 -34.01239976 44.70701833 -36.3203125 46.7578125 C-36.93277832 47.29680176 -37.54524414 47.83579102 -38.17626953 48.39111328 C-38.81935059 48.9632959 -39.46243164 49.53547852 -40.125 50.125 C-45.15026261 54.54128633 -50.22399779 58.83979926 -55.48046875 62.98046875 C-58.51376464 65.41180825 -61.47685297 67.91859894 -64.4375 70.4375 C-71.81499874 76.7103696 -79.29037397 82.85371074 -86.875 88.875 C-90.73154549 91.94685406 -94.50116734 95.11090944 -98.25 98.3125 C-103.31478652 102.63471067 -108.49425271 106.77829813 -113.75317383 110.86108398 C-117.90440148 114.09882158 -121.93809952 117.45207402 -125.9375 120.875 C-135.12689239 128.69261674 -135.12689239 128.69261674 -139 131 C-148.11655068 130.20725646 -158.08246427 117.27898258 -164.42871094 111.22998047 C-167.84023627 107.98336526 -171.25628782 104.86921571 -175 102 C-178.42673696 103.52739084 -181.05841282 105.54331171 -183.9375 107.9375 C-184.90816406 108.74316406 -185.87882812 109.54882812 -186.87890625 110.37890625 C-187.91997029 111.25177061 -188.96032288 112.12548413 -190 113 C-190.51804199 113.43554199 -191.03608398 113.87108398 -191.56982422 114.31982422 C-194.82439661 117.0602525 -198.06967623 119.81151808 -201.31201172 122.56640625 C-204.18439057 125.0058926 -207.06098836 127.44038966 -209.9375 129.875 C-210.45683105 130.31505371 -210.97616211 130.75510742 -211.51123047 131.20849609 C-213.00598683 132.47410462 -214.50297804 133.73707214 -216 135 C-216.54156738 135.47211914 -217.08313477 135.94423828 -217.64111328 136.43066406 C-221.78359979 140 -221.78359979 140 -224 140 C-225.62109375 137.734375 -225.62109375 137.734375 -227.4375 134.75 C-229.91093595 130.67645255 -229.91093595 130.67645255 -232.78515625 126.890625 C-234 125 -234 125 -233.9140625 122.93359375 C-232.7648618 120.50259226 -231.57161437 119.61329329 -229.375 118.0625 C-225.03532369 114.84207565 -220.94159719 111.42795493 -216.875 107.875 C-215.91702515 107.03908325 -215.91702515 107.03908325 -214.93969727 106.1862793 C-213.62098446 105.03484023 -212.30271111 103.8828977 -210.98486328 102.73046875 C-209.03644256 101.03177182 -207.08042912 99.34233967 -205.12109375 97.65625 C-192.31567287 86.84444167 -192.31567287 86.84444167 -180.296875 75.1953125 C-179 74 -179 74 -177 74 C-177 73.34 -177 72.68 -177 72 C-174.07356763 73.32856194 -171.9299237 74.79564177 -169.609375 77.01171875 C-168.98611328 77.60146484 -168.36285156 78.19121094 -167.72070312 78.79882812 C-167.07037109 79.42208984 -166.42003906 80.04535156 -165.75 80.6875 C-164.40186628 81.96311164 -163.05291639 83.23786131 -161.703125 84.51171875 C-161.06052734 85.11935059 -160.41792969 85.72698242 -159.75585938 86.35302734 C-157.12793764 88.81798286 -154.43494621 91.19890726 -151.69921875 93.54296875 C-150.50024938 94.57105053 -149.31664197 95.6171802 -148.14453125 96.67578125 C-147.23767578 97.48595703 -147.23767578 97.48595703 -146.3125 98.3125 C-145.79300781 98.78300781 -145.27351563 99.25351563 -144.73828125 99.73828125 C-142.62048509 101.27546813 -140.45109638 102.11059024 -138 103 C-137.56768066 102.64808594 -137.13536133 102.29617187 -136.68994141 101.93359375 C-122.45304233 90.34744268 -122.45304233 90.34744268 -117 86 C-109.95922552 80.38386384 -102.98571854 74.68433123 -96 69 C-93.20870834 66.72870517 -90.41711017 64.45778858 -87.625 62.1875 C-86.95291504 61.6409375 -86.28083008 61.094375 -85.58837891 60.53125 C-81.98948981 57.60720833 -78.37885529 54.69935293 -74.75 51.8125 C-71.14863466 48.94105963 -67.59831932 46.01429794 -64.0625 43.0625 C-63.06476563 42.22976562 -62.06703125 41.39703125 -61.0390625 40.5390625 C-59.50651154 39.2586536 -57.97400692 37.97818409 -56.44433594 36.69433594 C-54.94552445 35.43790963 -53.44159064 34.18760172 -51.9375 32.9375 C-51.05964844 32.20402344 -50.18179688 31.47054687 -49.27734375 30.71484375 C-47 29 -47 29 -44 28 C-47.37532279 24.5223947 -50.87414566 21.37888869 -54.64453125 18.33203125 C-55.09183594 17.89246094 -55.53914062 17.45289063 -56 17 C-56 16.34 -56 15.68 -56 15 C-54.78828125 14.70867187 -53.5765625 14.41734375 -52.328125 14.1171875 C-40.86508845 11.32591616 -29.57396201 8.15236542 -18.29492188 4.69775391 C-14.82974282 3.64419202 -11.35465236 2.62983838 -7.875 1.625 C-6.77929688 1.30789062 -5.68359375 0.99078125 -4.5546875 0.6640625 C-2 0 -2 0 0 0 Z " fill="#83C34B" transform="translate(305,112)"/>
<path d="M0 0 C27.39 0 54.78 0 83 0 C83 6.6 83 13.2 83 20 C63.2 20 43.4 20 23 20 C23 29.57 23 39.14 23 49 C40.82 49 58.64 49 77 49 C77 55.6 77 62.2 77 69 C59.18 69 41.36 69 23 69 C23 78.9 23 88.8 23 99 C43.46 99 63.92 99 85 99 C85 105.6 85 112.2 85 119 C56.95 119 28.9 119 0 119 C0 79.73 0 40.46 0 0 Z " fill="#143358" transform="translate(360,108)"/>
<path d="M0 0 C0.73501236 0.24871353 1.47002472 0.49742706 2.22731018 0.75367737 C3.79044957 1.28295361 5.35272481 1.81478791 6.91418457 2.34899902 C10.98508417 3.74104239 15.06269643 5.11308377 19.140625 6.484375 C20.33342575 6.88591293 20.33342575 6.88591293 21.55032349 7.29556274 C28.04194933 9.47263394 34.57125816 11.48250237 41.14624023 13.39233398 C48.81198534 15.6373676 56.37033816 18.19332828 63.92871094 20.77441406 C69.29733046 22.59542366 74.62153853 24.20569052 80.14453125 25.48828125 C80.14453125 26.14828125 80.14453125 26.80828125 80.14453125 27.48828125 C75.73929681 29.07098188 71.32855948 30.63685887 66.91210938 32.18798828 C65.41312036 32.71702424 63.91568344 33.25048089 62.41992188 33.78857422 C60.25922547 34.56498446 58.09329136 35.32488303 55.92578125 36.08203125 C55.2671106 36.32264282 54.60843994 36.56325439 53.92980957 36.81115723 C47.90830487 38.88300355 41.80349859 39.75421992 35.875 36.9140625 C34.77285156 36.41036133 34.77285156 36.41036133 33.6484375 35.89648438 C32.88402344 35.53490234 32.11960938 35.17332031 31.33203125 34.80078125 C24.55054902 31.76099264 17.84619532 29.33434553 10.64453125 27.48828125 C9.83781982 27.28114502 9.0311084 27.07400879 8.19995117 26.8605957 C5.1174185 26.10179297 2.33021961 25.48828125 -0.85546875 25.48828125 C11.68453125 30.10828125 24.22453125 34.72828125 37.14453125 39.48828125 C36.81453125 40.47828125 36.48453125 41.46828125 36.14453125 42.48828125 C33.66113028 43.28284871 31.3097233 43.88997521 28.76953125 44.42578125 C22.96050832 45.75767187 17.45542848 47.33715151 11.8828125 49.4765625 C7.61058249 51.05503265 3.25366197 52.34117571 -1.10546875 53.65625 C-3.03087261 54.23879407 -4.94709671 54.85215724 -6.85546875 55.48828125 C-13.16327527 55.88422582 -18.13109313 54.80356996 -24.10546875 52.86328125 C-25.8723462 52.31234079 -27.6392748 51.76156436 -29.40625 51.2109375 C-30.30553223 50.92621582 -31.20481445 50.64149414 -32.13134766 50.34814453 C-36.50870386 48.96644095 -40.89885228 47.62809182 -45.29296875 46.30078125 C-46.12779785 46.04820557 -46.96262695 45.79562988 -47.82275391 45.53540039 C-53.5038902 43.83782948 -59.20442299 42.40411332 -65 41.14453125 C-69.35195031 40.14435662 -73.60216531 38.84204149 -77.85546875 37.48828125 C-77.85546875 36.49828125 -77.85546875 35.50828125 -77.85546875 34.48828125 C-76.69273438 34.318125 -75.53 34.14796875 -74.33203125 33.97265625 C-66.03625363 32.72710962 -57.83693105 31.34324317 -49.66796875 29.42578125 C-41.45032195 27.50118876 -33.24490579 26.35694231 -24.85546875 25.48828125 C-24.85546875 24.82828125 -24.85546875 24.16828125 -24.85546875 23.48828125 C-26.77359375 23.95234375 -26.77359375 23.95234375 -28.73046875 24.42578125 C-32.88400901 25.35529026 -36.95772489 25.83011565 -41.19238281 26.19506836 C-43.65594192 26.46631281 -46.00689879 26.88031925 -48.4296875 27.39453125 C-52.18436484 28.16629315 -55.94141243 28.85916185 -59.72265625 29.48828125 C-61.20378906 29.73578125 -61.20378906 29.73578125 -62.71484375 29.98828125 C-64.74807436 30.32539721 -66.78194917 30.6586477 -68.81640625 30.98828125 C-70.2859375 31.23578125 -70.2859375 31.23578125 -71.78515625 31.48828125 C-72.66413574 31.63265625 -73.54311523 31.77703125 -74.44873047 31.92578125 C-76.86627599 32.38810237 -76.86627599 32.38810237 -78.92236328 33.55078125 C-80.85546875 34.48828125 -80.85546875 34.48828125 -84.85546875 34.48828125 C-84.85324814 35.12499252 -84.85102753 35.7617038 -84.84873962 36.41770935 C-84.82668835 43.01943401 -84.81156282 49.62114829 -84.80053711 56.22290039 C-84.79549519 58.68970158 -84.78866184 61.15649977 -84.7800293 63.62329102 C-84.7679575 67.16032654 -84.76223919 70.6973227 -84.7578125 74.234375 C-84.75265121 75.34477646 -84.74748993 76.45517792 -84.74217224 77.59922791 C-84.74205894 79.13070213 -84.74205894 79.13070213 -84.74194336 80.69311523 C-84.73972275 81.59690414 -84.73750214 82.50069305 -84.73521423 83.43186951 C-84.85546875 85.48828125 -84.85546875 85.48828125 -85.85546875 86.48828125 C-88.16546875 86.48828125 -90.47546875 86.48828125 -92.85546875 86.48828125 C-92.85546875 68.33828125 -92.85546875 50.18828125 -92.85546875 31.48828125 C-95.82546875 30.82828125 -98.79546875 30.16828125 -101.85546875 29.48828125 C-103.86579752 28.85344058 -105.87125616 28.20056269 -107.85546875 27.48828125 C-107.85546875 26.82828125 -107.85546875 26.16828125 -107.85546875 25.48828125 C-106.53675781 25.12089844 -106.53675781 25.12089844 -105.19140625 24.74609375 C-93.94935552 21.55118691 -82.87605351 17.88227286 -71.80615234 14.14306641 C-60.3829946 10.29332267 -48.90045653 6.73815652 -37.29296875 3.48828125 C-30.56037096 1.60154199 -23.94711126 -0.40259208 -17.42578125 -2.9453125 C-11.47529986 -4.25658879 -5.60133028 -1.94039978 0 0 Z " fill="#1C3458" transform="translate(173.85546875,70.51171875)"/>
<path d="M0 0 C7.26 0 14.52 0 22 0 C22.33 22.44 22.66 44.88 23 68 C27.19171096 63.80828904 31.12826003 59.77661165 34.96875 55.31640625 C37.97444515 51.88875774 41.07561036 48.54982599 44.18066406 45.2121582 C46.95911839 42.21385448 46.95911839 42.21385448 49.26586914 38.85351562 C51 37 51 37 53.8190918 36.54589844 C55.49225464 36.57731934 55.49225464 36.57731934 57.19921875 36.609375 C58.40771484 36.62226563 59.61621094 36.63515625 60.86132812 36.6484375 C62.12396484 36.68195313 63.38660156 36.71546875 64.6875 36.75 C65.96173828 36.76804688 67.23597656 36.78609375 68.54882812 36.8046875 C71.69996841 36.85189559 74.8496114 36.91773616 78 37 C73.75441869 42.96532318 69.07428549 48.29268283 64 53.5625 C62.6234685 54.99983693 61.24844701 56.43862165 59.875 57.87890625 C59.22015625 58.56484863 58.5653125 59.25079102 57.890625 59.95751953 C56.06480919 61.92998531 54.33977894 63.95826733 52.625 66.02734375 C51.75875 67.00832031 50.8925 67.98929687 50 69 C49.34 69 48.68 69 48 69 C51.42357236 75.30706244 55.4192945 81.21095051 59.42584229 87.15679932 C65.09709825 95.57838494 70.74649933 104.01228181 76.125 112.625 C76.53186035 113.27460693 76.9387207 113.92421387 77.35791016 114.59350586 C80 118.86510194 80 118.86510194 80 120 C57.94638948 122.51323197 57.94638948 122.51323197 51.96435547 118.70361328 C48.68813327 115.13268784 46.91973161 110.80076413 45.08349609 106.36669922 C43.15731437 102.15930723 40.47379061 98.43959908 37.875 94.625 C33 87.31209691 33 87.31209691 33 85 C31.70756532 86.1241176 30.41607925 87.24932592 29.125 88.375 C28.40570312 89.00148438 27.68640625 89.62796875 26.9453125 90.2734375 C23.77969208 92.85396388 23.77969208 92.85396388 22.68115234 96.61376953 C22.64973145 97.69255371 22.61831055 98.77133789 22.5859375 99.8828125 C22.54726563 101.04941406 22.50859375 102.21601563 22.46875 103.41796875 C22.4378125 104.64128906 22.406875 105.86460937 22.375 107.125 C22.33632813 108.35605469 22.29765625 109.58710938 22.2578125 110.85546875 C22.16330325 113.90339211 22.08055377 116.95167589 22 120 C14.74 120 7.48 120 0 120 C0 80.4 0 40.8 0 0 Z " fill="#2F7E3D" transform="translate(878,107)"/>
<path d="M0 0 C7.26 0 14.52 0 22 0 C22.00410889 1.62421875 22.00821777 3.2484375 22.01245117 4.921875 C22.03427962 10.96793018 22.08860976 17.01333805 22.15258789 23.05908203 C22.17573518 25.67197449 22.19015587 28.28495982 22.19555664 30.89794922 C22.20486936 34.66171936 22.24591604 38.42403523 22.29296875 42.1875 C22.2890361 43.34926758 22.28510345 44.51103516 22.28105164 45.70800781 C22.40240522 52.50704379 23.0797813 57.96059649 28 63 C32.88245336 65.8466943 37.78147351 65.72402705 43.22265625 64.5 C47.81756587 62.98840357 50.3894895 61.2169785 53 57 C54.65837394 53.42724127 55.26148799 50.58807283 55.31884766 46.65893555 C55.33871735 45.6182341 55.35858704 44.57753265 55.37905884 43.5052948 C55.39061005 42.3936647 55.40216125 41.28203461 55.4140625 40.13671875 C55.43342865 38.98959915 55.4527948 37.84247955 55.4727478 36.66059875 C55.53244467 33.0029744 55.57889002 29.34531841 55.625 25.6875 C55.66318883 23.20506453 55.70224108 20.72264218 55.7421875 18.24023438 C55.83813835 12.16026304 55.92220645 6.08022968 56 0 C63.26 0 70.52 0 78 0 C78 27.39 78 54.78 78 83 C71.07 83 64.14 83 57 83 C56.505 78.545 56.505 78.545 56 74 C55.23429688 74.79664063 55.23429688 74.79664063 54.453125 75.609375 C47.58051825 82.28701418 40.13365686 86.0038615 30.4375 86.4375 C20.78262281 85.84496241 14.0790092 83.22147327 7.1015625 76.41015625 C1.43151961 69.90752341 -0.13116188 63.3511903 -0.11352539 54.83276367 C-0.11344986 53.61187546 -0.11337433 52.39098724 -0.11329651 51.13310242 C-0.10813522 49.82460831 -0.10297394 48.5161142 -0.09765625 47.16796875 C-0.09578961 45.80748039 -0.09436687 44.44699135 -0.09336853 43.08650208 C-0.08956275 39.51744713 -0.07974914 35.94843331 -0.06866455 32.37939453 C-0.05840863 28.73275305 -0.05386197 25.08610489 -0.04882812 21.43945312 C-0.03812503 14.29295038 -0.02054404 7.14648222 0 0 Z " fill="#143257" transform="translate(556,144)"/>
<path d="M0 0 C0.99 1.98 0.99 1.98 2 4 C-1.96 9.94 -1.96 9.94 -6 16 C-11 14 -11 14 -13.3671875 12.9296875 C-21.07318253 9.68884847 -28.72719471 8.90810774 -37 10 C-39.39551273 11.38725202 -39.39551273 11.38725202 -41 13 C-41.22267708 16.37823416 -41.22267708 16.37823416 -40 20 C-34.68048623 24.36547054 -26.13869267 25.33928131 -19.60693359 27.07250977 C-13.88119818 28.6364118 -8.89612716 30.57384173 -4 34 C-3.05125 34.66 -2.1025 35.32 -1.125 36 C3.83516606 40.66839158 4.81114138 45.16712064 5.25 51.75 C5.11511194 58.91255603 2.76643409 65.18091892 -2.1328125 70.43359375 C-10.53597686 77.48311029 -20.73944531 79.35048412 -31.375 79.3125 C-32.26960937 79.32861328 -33.16421875 79.34472656 -34.0859375 79.36132812 C-42.7858115 79.36765071 -49.64929898 76.89326665 -57.375 73 C-58.37273438 72.505 -59.37046875 72.01 -60.3984375 71.5 C-62.69621946 70.17515275 -64.26746357 68.98004164 -66 67 C-64.62712658 63.30123909 -62.93644547 60.0485524 -60.875 56.6875 C-60.33617187 55.80449219 -59.79734375 54.92148438 -59.2421875 54.01171875 C-58.83226562 53.34785156 -58.42234375 52.68398437 -58 52 C-54.95014181 52.6019457 -53.00529693 53.56195617 -50.5 55.375 C-43.7023272 59.75854601 -35.046551 61.78887755 -27 61 C-21.98817313 59.94510065 -21.98817313 59.94510065 -18 57 C-17.83322718 53.41656024 -17.83322718 53.41656024 -18 50 C-24.25854192 46.21913277 -30.51569227 44.24851248 -37.5625 42.5625 C-44.66101757 40.82959629 -50.4283263 38.94240232 -56 34 C-57.4540625 32.7315625 -57.4540625 32.7315625 -58.9375 31.4375 C-62.69735672 26.99403297 -63.40710047 23.15690501 -63.24609375 17.46484375 C-62.57396646 10.73290211 -60.71712257 4.58646798 -56.00390625 -0.3984375 C-39.74834308 -13.39021314 -16.45972997 -11.49029751 0 0 Z " fill="#317E3F" transform="translate(861,150)"/>
<path d="M0 0 C0.19879872 4.01955718 0.34338441 8.0371892 0.43945312 12.06054688 C0.47951753 13.426614 0.53399241 14.79234156 0.60351562 16.15722656 C1.15652943 27.29882812 1.15652943 27.29882812 -1.47802734 31.17407227 C-6.17565536 34.99552273 -11.79629727 36.45360465 -17.625 37.6875 C-18.50309326 37.88754639 -19.38118652 38.08759277 -20.28588867 38.29370117 C-22.04503664 38.69196545 -23.80601702 39.08223363 -25.56884766 39.46386719 C-27.68681809 39.93093518 -29.78589736 40.43868986 -31.88671875 40.9765625 C-51.54775857 45.77412524 -74.43544583 42.70867907 -92.40234375 33.19921875 C-94.64589973 31.20263591 -94.98714356 30.08050181 -95.46850586 27.06640625 C-95.59218191 23.42143398 -95.52204008 19.8314548 -95.375 16.1875 C-95.34792969 14.92228516 -95.32085937 13.65707031 -95.29296875 12.35351562 C-95.22233697 9.2339453 -95.12373646 6.11784159 -95 3 C-84.51913851 5.17654367 -74.63048105 8.39283781 -64.578125 12.03515625 C-56.43957816 14.93382814 -56.43957816 14.93382814 -48 14 C-47.25637207 13.80825195 -46.51274414 13.61650391 -45.74658203 13.41894531 C-43.15019205 12.73950667 -40.57614011 12.00244045 -38 11.25 C-37.07662842 10.98340576 -36.15325684 10.71681152 -35.2019043 10.44213867 C-28.49635349 8.48647417 -21.86874366 6.35363795 -15.2578125 4.1015625 C-3.12765957 0 -3.12765957 0 0 0 Z " fill="#1B3355" transform="translate(214,115)"/>
<path d="M0 0 C7.26 0 14.52 0 22 0 C22 27.39 22 54.78 22 83 C14.74 83 7.48 83 0 83 C0 55.61 0 28.22 0 0 Z " fill="#2E803E" transform="translate(762,144)"/>
<path d="M0 0 C5.43986666 4.01487041 8.75926764 8.26576138 10.5625 14.875 C11.52189232 23.69402943 11.67477442 31.38995022 6.3515625 38.8828125 C2.55186425 43.11391753 -1.74942492 46.52882689 -7.6015625 47.078125 C-14.31591008 47.20601733 -20.89243951 46.87049871 -26.2265625 42.36328125 C-33.04242927 34.89268836 -33.94785278 28.34817689 -33.72265625 18.41015625 C-33.15353542 11.35461721 -30.25787441 6.92491605 -25.4375 1.875 C-18.33732558 -3.14707459 -7.68386711 -4.56641246 0 0 Z " fill="#FAFBFB" transform="translate(507.4375,163.125)"/>
<path d="M0 0 C1.26290106 0.92500301 2.52270908 1.85422962 3.78125 2.78515625 C4.8340918 3.56064819 4.8340918 3.56064819 5.90820312 4.35180664 C8.56256985 6.4432667 10.8620572 8.77765985 13.20703125 11.203125 C15.7188105 13.72037654 18.40163037 16.01686991 21.10546875 18.32421875 C21.73066406 18.87722656 22.35585937 19.43023437 23 20 C23.68970886 20.57349182 24.37941772 21.14698364 25.09002686 21.737854 C27.53319082 24.6315039 27.48615287 26.12011364 27.45410156 29.87011719 C27.45364838 31.64150055 27.45364838 31.64150055 27.45318604 33.44866943 C27.43254089 34.71857727 27.41189575 35.98848511 27.390625 37.296875 C27.38496521 38.60078186 27.37930542 39.90468872 27.37347412 41.24810791 C27.35823338 44.70732523 27.31896662 48.16586606 27.2746582 51.62481689 C27.23367087 55.15733693 27.21545582 58.68996674 27.1953125 62.22265625 C27.15246968 69.14871462 27.08423815 76.0743248 27 83 C22.49183585 81.54054794 18.3636761 79.81627831 14.125 77.6875 C12.97257813 77.11386719 11.82015625 76.54023438 10.6328125 75.94921875 C10.0478299 75.62573456 9.46284729 75.30225037 8.86013794 74.96896362 C7.00276966 73.94614412 7.00276966 73.94614412 4.91500854 73.26370239 C2.31467258 72.13854362 0.83959793 71.17783075 -1 69 C-2.10185671 63.81126815 -1.78955038 58.68070066 -1.5625 53.41796875 C-1.52511969 51.87819944 -1.49131612 50.3383395 -1.4609375 48.79841614 C-1.37157088 44.75429774 -1.2337739 40.71323827 -1.08575439 36.67089844 C-0.94319351 32.54241629 -0.84659432 28.41288531 -0.74609375 24.28320312 C-0.54230087 16.1870721 -0.28731888 8.09359527 0 0 Z " fill="#6CB647" transform="translate(132,233)"/>
<path d="M0 0 C5.23875 -0.061875 10.4775 -0.12375 15.875 -0.1875 C17.50679199 -0.21481201 19.13858398 -0.24212402 20.81982422 -0.27026367 C38.91039783 -0.37334071 38.91039783 -0.37334071 44.63232422 4.34643555 C49.06995348 9.30609225 50.47882441 14.15952372 50.31640625 20.65625 C49.61139376 25.87856477 47.2940443 29.73913632 43.5625 33.375 C38.26096405 36.73694963 33.84155019 37.27976817 27.63671875 37.1953125 C26.93405884 37.19329834 26.23139893 37.19128418 25.50744629 37.18920898 C22.90073043 37.17880181 20.29410816 37.15087943 17.6875 37.125 C8.9321875 37.063125 8.9321875 37.063125 0 37 C0 24.79 0 12.58 0 0 Z " fill="#F8FAF8" transform="translate(674,128)"/>
<path d="M0 0 C0.29351779 7.3271517 0.54814532 14.65458273 0.75383663 21.98475838 C0.85056993 25.38895197 0.96041995 28.79164173 1.10083008 32.19433594 C1.26184054 36.11047438 1.36475782 40.02712487 1.46484375 43.9453125 C1.52284653 45.16115021 1.5808493 46.37698792 1.64060974 47.62966919 C1.79009445 55.92777362 1.79009445 55.92777362 -0.52354431 59.06758118 C-2.27808424 60.57361349 -4.03948214 61.78296397 -6 63 C-7.18325215 64.27886849 -8.33763929 65.58624255 -9.4375 66.9375 C-12.41640506 70.44524438 -15.62851881 73.42057612 -19.13671875 76.390625 C-20.81964907 77.84422519 -22.38622536 79.34599058 -23.9375 80.9375 C-24.618125 81.618125 -25.29875 82.29875 -26 83 C-26.33 83 -26.66 83 -27 83 C-27.32617275 75.10692594 -27.57397835 67.21671729 -27.72537041 59.31854534 C-27.79808533 55.64962046 -27.89642396 51.98534123 -28.05615234 48.3190918 C-29.14707356 22.61540981 -29.14707356 22.61540981 -24.04101562 16.76489258 C-21.21408666 14.28796912 -18.18966408 12.57795991 -14.80383301 10.98017883 C-11.64419228 9.26327214 -9.31708334 6.81340314 -6.75 4.3125 C-2.21617418 0 -2.21617418 0 0 0 Z " fill="#61B249" transform="translate(229,209)"/>
<path d="M0 0 C0.2233087 7.90114716 0.42480417 15.80241987 0.59840012 23.70480061 C0.67969344 27.37413292 0.76851683 31.04296146 0.87451172 34.71166992 C0.97650998 38.25161603 1.05877669 41.7915196 1.12732697 45.33226585 C1.17140289 47.3417569 1.23595188 49.35076487 1.30072021 51.35969543 C1.32104309 52.58073471 1.34136597 53.80177399 1.36230469 55.05981445 C1.38895203 56.13681107 1.41559937 57.21380768 1.4430542 58.32344055 C1 61 1 61 -0.87420654 62.8165741 C-3 64 -3 64 -5.375 64.875 C-8.24247642 65.94988402 -8.24247642 65.94988402 -11 68.5625 C-13.91319147 70.92946807 -15.34300269 71.67732377 -19 72 C-19 72.66 -19 73.32 -19 74 C-20.4540625 74.4021875 -20.4540625 74.4021875 -21.9375 74.8125 C-23.4534375 75.4003125 -23.4534375 75.4003125 -25 76 C-25.33 76.99 -25.66 77.98 -26 79 C-26.99 78.67 -27.98 78.34 -29 78 C-28.01 77.505 -28.01 77.505 -27 77 C-27.01118614 75.95216591 -27.01118614 75.95216591 -27.02259827 74.88316345 C-27.08509875 68.27740196 -27.10412274 61.6730817 -27.07515812 55.06705379 C-27.06177917 51.67110223 -27.06480195 48.27686413 -27.10620117 44.88110352 C-27.15313556 40.9708935 -27.12713071 37.06275312 -27.09765625 33.15234375 C-27.12223404 31.94166733 -27.14681183 30.73099091 -27.1721344 29.48362732 C-27.03175251 21.20445852 -27.03175251 21.20445852 -24.07577515 17.75367737 C-21.79456556 15.97012089 -19.48027476 14.48892038 -17 13 C-15.53429284 11.84647204 -14.08361175 10.67330718 -12.65625 9.47265625 C-11.96789062 8.90869141 -11.27953125 8.34472656 -10.5703125 7.76367188 C-9.15803678 6.60320758 -7.74661409 5.44170457 -6.3359375 4.27929688 C-5.65789062 3.72435547 -4.97984375 3.16941406 -4.28125 2.59765625 C-3.67345703 2.09758057 -3.06566406 1.59750488 -2.43945312 1.08227539 C-1 0 -1 0 0 0 Z " fill="#69B547" transform="translate(194,237)"/>
<path d="M0 0 C0.66 0 1.32 0 2 0 C4.21498603 17.32513825 0.18217047 31.21812541 -7 47 C-7.350625 47.81984375 -7.70125 48.6396875 -8.0625 49.484375 C-11.81543229 58.22167048 -16.86395064 66.02181096 -22 74 C-24.47616866 71.52383134 -24.29234688 70.68803256 -24.41748047 67.26586914 C-24.45606171 66.28046646 -24.49464294 65.29506378 -24.53439331 64.27980042 C-24.65020335 59.74128909 -24.74856578 55.20341698 -24.81005859 50.66381836 C-24.85307297 48.27846097 -24.92111117 45.89341311 -25.01513672 43.50952148 C-25.83003004 22.65434232 -25.83003004 22.65434232 -21.48413086 17.09765625 C-18.64997999 14.22291625 -15.42363024 12.13058983 -12 10 C-9.8872606 8.34546886 -7.85826835 6.61346783 -5.8125 4.875 C-4.91144531 4.15054688 -4.01039063 3.42609375 -3.08203125 2.6796875 C-1.13181795 1.16726823 -1.13181795 1.16726823 0 0 Z " fill="#4EA445" transform="translate(261,181)"/>
<path d="M0 0 C0.66 0 1.32 0 2 0 C2 20.13 2 40.26 2 61 C1.67 60.34 1.34 59.68 1 59 C-0.33018812 58.65432898 -1.66400919 58.32251737 -3 58 C-7.29440362 54.97665616 -11.31818251 51.66288592 -15.35888672 48.31152344 C-17.09164866 46.88422807 -17.09164866 46.88422807 -19.47265625 45.3828125 C-23.1033372 42.74367276 -24.12986749 40.0918744 -24.90234375 35.76953125 C-25.54095722 30.07642107 -25.98344128 24.04512051 -22.74023438 19.06591797 C-19.52942215 15.53222518 -15.76427443 12.81900889 -11.79589844 10.19433594 C-9.32318427 8.54989362 -7.01340376 6.71916317 -4.6875 4.875 C-3.99011719 4.35679687 -3.29273437 3.83859375 -2.57421875 3.3046875 C-0.86545511 2.06697902 -0.86545511 2.06697902 0 0 Z " fill="#6BB64A" transform="translate(122,235)"/>
<path d="M0 0 C3.18768616 1.72666334 4.97550072 3.16637609 7 6.203125 C7.65237324 10.57745928 8.03401151 15.21582406 5.94921875 19.22265625 C3.49405503 22.19927068 1.48551317 24.00850553 -2.35546875 24.51171875 C-7.50842952 24.74626731 -11.05566507 24.80852794 -15.125 21.390625 C-18.15758186 18.45235789 -18.91141254 16.14215211 -19.3125 11.890625 C-18.93790854 7.47044579 -17.83614013 5.57583219 -15 2.203125 C-10.5635871 -1.49388575 -5.3208075 -2.12000924 0 0 Z " fill="#31813F" transform="translate(778,106.796875)"/>
<path d="M0 0 C2.5294125 2.96748394 3.45416305 5.10285038 3.94921875 8.95703125 C4.07490234 9.90513672 4.20058594 10.85324219 4.33007812 11.83007812 C4.44802734 12.81427734 4.56597656 13.79847656 4.6875 14.8125 C4.88182617 16.27139648 4.88182617 16.27139648 5.08007812 17.75976562 C5.73222292 22.85615645 6.36342106 27.8641062 6 33 C4 35 4 35 0.84765625 35.23046875 C-0.40144531 35.21628906 -1.65054688 35.20210937 -2.9375 35.1875 C-4.80728516 35.17783203 -4.80728516 35.17783203 -6.71484375 35.16796875 C-10 35 -10 35 -13 34 C-13.08512104 27.89256564 -12.7943172 21.89524473 -12.25 15.8125 C-12.1571875 14.49862305 -12.1571875 14.49862305 -12.0625 13.15820312 C-11.59426315 8.01149973 -11.02978374 4.6209651 -7 1 C-3.25 0.1875 -3.25 0.1875 0 0 Z " fill="#F3BA2F" transform="translate(88,156)"/>
<path d="M0 0 C2.12691797 0.44934887 4.25150039 0.90976473 6.375 1.375 C7.55835937 1.63023438 8.74171875 1.88546875 9.9609375 2.1484375 C13 3 13 3 15 5 C14.34 6.98 13.68 8.96 13 11 C13.33 11.33 13.66 11.66 14 12 C14.09883336 13.46478506 14.13079289 14.93422958 14.1328125 16.40234375 C14.13410156 17.29244141 14.13539063 18.18253906 14.13671875 19.09960938 C14.13285156 20.03611328 14.12898437 20.97261719 14.125 21.9375 C14.12886719 22.87013672 14.13273438 23.80277344 14.13671875 24.76367188 C14.13542969 25.65505859 14.13414062 26.54644531 14.1328125 27.46484375 C14.13168457 28.285896 14.13055664 29.10694824 14.12939453 29.95288086 C14 32 14 32 13 34 C8.56219407 33.0236827 4.76611127 32.00219016 1.22607422 28.93286133 C-1.63997808 24.41463431 -0.58242739 18.32797616 -0.375 13.1875 C-0.34792969 11.92228516 -0.32085937 10.65707031 -0.29296875 9.35351562 C-0.22233697 6.2339453 -0.12373646 3.11784159 0 0 Z " fill="#294062" transform="translate(119,118)"/>
<path d="M0 0 C6.0546875 -0.1953125 6.0546875 -0.1953125 8 0 C10 2 10 2 10.22705078 3.87939453 C10.21134033 4.99483643 10.21134033 4.99483643 10.1953125 6.1328125 C10.18564453 7.34130859 10.18564453 7.34130859 10.17578125 8.57421875 C10.15902344 9.41597656 10.14226562 10.25773438 10.125 11.125 C10.11597656 11.97449219 10.10695312 12.82398438 10.09765625 13.69921875 C10.07405647 15.79959884 10.03818483 17.89983444 10 20 C8.52031676 19.85950482 7.04125484 19.71245174 5.5625 19.5625 C4.73878906 19.48128906 3.91507812 19.40007812 3.06640625 19.31640625 C1 19 1 19 0 18 C-0.08631874 16.65732587 -0.10706473 15.31025678 -0.09765625 13.96484375 C-0.09443359 13.15595703 -0.09121094 12.34707031 -0.08789062 11.51367188 C-0.07951172 10.66353516 -0.07113281 9.81339844 -0.0625 8.9375 C-0.05798828 8.08349609 -0.05347656 7.22949219 -0.04882812 6.34960938 C-0.03700373 4.23304337 -0.01906769 2.11651315 0 0 Z " fill="#9CABC1" transform="translate(123,128)"/>
<path d="M0 0 C0 0.66 0 1.32 0 2 C-1.2986499 2.24907104 -1.2986499 2.24907104 -2.62353516 2.50317383 C-5.90778337 3.13381773 -9.19176409 3.76582278 -12.47558594 4.39868164 C-13.88336239 4.66971538 -15.29123652 4.94024238 -16.69921875 5.21020508 C-25.17411776 6.83556964 -33.62284282 8.53178795 -42.04931641 10.39477539 C-44.61947845 10.92194995 -47.14538062 11.32451175 -49.75 11.625 C-52.88252582 11.79886997 -52.88252582 11.79886997 -55 13 C-55.33 12.01 -55.66 11.02 -56 10 C-52.98754101 8.32204199 -50.32510493 7.55770743 -46.9296875 7 C-45.95 6.835 -44.9703125 6.67 -43.9609375 6.5 C-42.43339844 6.2525 -42.43339844 6.2525 -40.875 6 C-38.87218641 5.66792728 -36.86957985 5.33460342 -34.8671875 5 C-33.8865332 4.83685303 -32.90587891 4.67370605 -31.89550781 4.50561523 C-29.1192104 4.02081659 -26.36186589 3.47831784 -23.6015625 2.91015625 C-20.23344509 2.22200284 -16.93253663 1.69939809 -13.5 1.4375 C-8.74884289 1.06913497 -4.89387434 -0.0906273 0 0 Z " fill="#BDAC83" transform="translate(149,94)"/>
<path d="M0 0 C6.39959892 0.54125961 12.09341458 1.69032128 18.1875 3.6875 C19.00758545 3.95006592 19.8276709 4.21263184 20.67260742 4.4831543 C26.97461386 6.54822895 33.00708246 9.0105949 39.01953125 11.80078125 C42.03647561 13.01467629 44.7828575 13.59124497 48 14 C48 14.33 48 14.66 48 15 C46.02 15 44.04 15 42 15 C42 15.66 42 16.32 42 17 C41.01 17 40.02 17 39 17 C39 16.34 39 15.68 39 15 C38.12214844 14.79697266 38.12214844 14.79697266 37.2265625 14.58984375 C27.82974469 12.23358463 18.97118014 8.60121219 10 5 C8.32744141 4.33484375 8.32744141 4.33484375 6.62109375 3.65625 C4.41179262 2.77630076 2.20454212 1.89178714 0 1 C0 0.67 0 0.34 0 0 Z " fill="#E7E8EB" transform="translate(172,95)"/>
<path d="M0 0 C0.66 0 1.32 0 2 0 C2 19.14 2 38.28 2 58 C2.99 58.33 3.98 58.66 5 59 C3.35 59.99 1.7 60.98 0 62 C0 41.54 0 21.08 0 0 Z " fill="#71BA5B" transform="translate(202,230)"/>
<path d="M0 0 C1.65 1.32 3.3 2.64 5 4 C4.01 4 3.02 4 2 4 C1.67 25.45 1.34 46.9 1 69 C0.34 68.67 -0.32 68.34 -1 68 C-0.67 45.56 -0.34 23.12 0 0 Z " fill="#84C064" transform="translate(132,233)"/>
<path d="M0 0 C0 0.66 0 1.32 0 2 C-3.83830763 2.74595407 -7.67933425 3.47565733 -11.5234375 4.19116211 C-13.46512743 4.55594847 -15.40447419 4.933137 -17.34375 5.31054688 C-23.89724658 6.52226109 -29.44529167 7.38211653 -36 6 C-36 5.67 -36 5.34 -36 5 C-34.41058594 4.80083984 -34.41058594 4.80083984 -32.7890625 4.59765625 C-31.40101721 4.41946125 -30.01299769 4.2410654 -28.625 4.0625 C-27.92632812 3.97548828 -27.22765625 3.88847656 -26.5078125 3.79882812 C-22.63216425 3.33681872 -22.63216425 3.33681872 -19 2 C-16.44122107 1.68879716 -13.88148388 1.49035334 -11.3125 1.28125 C-0.675 -0.0125 -0.675 -0.0125 0 0 Z " fill="#AE9D74" transform="translate(149,94)"/>
<path d="M0 0 C2.31 0 4.62 0 7 0 C7 0.33 7 0.66 7 1 C5.02 1 3.04 1 1 1 C1.33 6.94 1.66 12.88 2 19 C6.455 19.99 6.455 19.99 11 21 C10.67 22.32 10.34 23.64 10 25 C4.47371099 23.80805531 1.82180842 22.4008703 -2 18 C-1.34 18 -0.68 18 0 18 C0 12.06 0 6.12 0 0 Z " fill="#5D718D" transform="translate(122,127)"/>
<path d="M0 0 C2.64 0 5.28 0 8 0 C7.360625 0.309375 6.72125 0.61875 6.0625 0.9375 C4.06389179 1.8345163 4.06389179 1.8345163 3 3 C2.92680379 5.69654854 2.90757463 8.36691458 2.9375 11.0625 C2.94201172 11.82111328 2.94652344 12.57972656 2.95117188 13.36132812 C2.9629932 15.24091871 2.98092922 17.12046899 3 19 C2.01 18.67 1.02 18.34 0 18 C0 12.06 0 6.12 0 0 Z " fill="#8396AF" transform="translate(123,128)"/>
<path d="M0 0 C5.27315333 0.4452885 10.01770224 1.08373163 15 3 C14.67 3.66 14.34 4.32 14 5 C8.58609132 4.53328373 4.79482068 3.75702189 0 1 C0 0.67 0 0.34 0 0 Z " fill="#E6E8EC" transform="translate(172,95)"/>
<path d="M0 0 C5.75 0.875 5.75 0.875 8 2 C7.67 2.99 7.34 3.98 7 5 C4.69 5 2.38 5 0 5 C0 3.35 0 1.7 0 0 Z " fill="#192E49" transform="translate(203,108)"/>
<path d="M0 0 C3.63 0.66 7.26 1.32 11 2 C11 2.33 11 2.66 11 3 C9.02 3 7.04 3 5 3 C5 3.66 5 4.32 5 5 C4.01 5 3.02 5 2 5 C2 4.34 2 3.68 2 3 C1.34 3 0.68 3 0 3 C0 2.01 0 1.02 0 0 Z " fill="#CBCED5" transform="translate(209,107)"/>
<path d="M0 0 C0 0.66 0 1.32 0 2 C-2.97 2 -5.94 2 -9 2 C-9 2.66 -9 3.32 -9 4 C-10.32 3.67 -11.64 3.34 -13 3 C-12.67 2.34 -12.34 1.68 -12 1 C-7.88769156 0.32585108 -4.16980357 0 0 0 Z " fill="#455472" transform="translate(108,104)"/>
<path d="M0 0 C0.66 0 1.32 0 2 0 C0.95125002 2.62187494 0.35068687 3.79371361 -2.125 5.25 C-2.74375 5.4975 -3.3625 5.745 -4 6 C-4 6.66 -4 7.32 -4 8 C-4.66 7.67 -5.32 7.34 -6 7 C-5.04882866 5.8274869 -4.08882991 4.66212985 -3.125 3.5 C-2.59132813 2.8503125 -2.05765625 2.200625 -1.5078125 1.53125 C-0.76144531 0.77328125 -0.76144531 0.77328125 0 0 Z " fill="#2E496A" transform="translate(466,150)"/>
<path d="M0 0 C1.22589844 0.15275391 1.22589844 0.15275391 2.4765625 0.30859375 C3.41628906 0.43427734 3.41628906 0.43427734 4.375 0.5625 C4.375 0.8925 4.375 1.2225 4.375 1.5625 C3.09625 1.706875 1.8175 1.85125 0.5 2 C-1.88192894 2.26892746 -3.46952691 2.48476346 -5.625 3.5625 C-5.955 2.5725 -6.285 1.5825 -6.625 0.5625 C-4.10446405 -0.69776798 -2.7707902 -0.35624445 0 0 Z " fill="#D3BB88" transform="translate(99.625,103.4375)"/>
<path d="M0 0 C-3.3146667 2.02907167 -5.4315979 2.12742133 -9.25 1.625 C-10.14203125 1.51414062 -11.0340625 1.40328125 -11.953125 1.2890625 C-12.62859375 1.19367188 -13.3040625 1.09828125 -14 1 C-14 0.67 -14 0.34 -14 0 C-9.02936879 -0.91297308 -4.97063121 -0.91297308 0 0 Z " fill="#9C9373" transform="translate(127,99)"/>
<path d="M0 0 C-0.33 0.99 -0.66 1.98 -1 3 C-3.97 2.505 -3.97 2.505 -7 2 C-7 1.34 -7 0.68 -7 0 C-3.86650268 -1.04449911 -3.01031744 -0.93423645 0 0 Z " fill="#374F6E" transform="translate(73,96)"/>
<path d="M0 0 C0 0.99 0 1.98 0 3 C-0.33 3.33 -0.66 3.66 -1 4 C-1.36760731 6.32817964 -1.70241581 8.6618385 -2 11 C-2.33 11 -2.66 11 -3 11 C-3 7.7 -3 4.4 -3 1 C-2.01 0.67 -1.02 0.34 0 0 Z " fill="#2C8D34" transform="translate(269,176)"/>
<path d="M0 0 C5.75 1.75 5.75 1.75 8 4 C6.02 4.99 6.02 4.99 4 6 C3.67 5.01 3.34 4.02 3 3 C2.01 2.67 1.02 2.34 0 2 C0 1.34 0 0.68 0 0 Z " fill="#2EA4CF" transform="translate(58,107)"/>
</svg>
